<svg xmlns="http://www.w3.org/2000/svg" viewBox="0 0 35.983 11.642"><path fill="#ec0016" d="M14.192.872H2.981a1.391 1.391 0 00-.996.412 1.415 1.415 0 00-.413 1.002v7.07c.001.375.15.735.415 1 .264.265.621.413.994.413h11.211c.373-.002.73-.152.993-.42.263-.266.41-.627.41-1.003v-7.06a1.42 1.42 0 00-.411-1 1.397 1.397 0 00-.992-.414z"/><path fill="#fff" d="M14.57 9.346a.393.393 0 01-.229.37.382.382 0 01-.149.034H2.981a.383.383 0 01-.36-.251.393.393 0 01-.026-.153v-7.06a.392.392 0 01.386-.41h11.211a.382.382 0 01.276.124.39.39 0 01.103.286z"/><path fill="#ec0016" d="M5.86 9.06H3.5V2.582H5.86c1.662 0 2.58 1.049 2.58 3.21.003 1.874-.621 3.253-2.58 3.268zm1.025-3.134c0-1.306-.14-2.325-1.529-2.325h-.312V8.01h.548c.818 0 1.293-.66 1.293-2.084zM12.51 5.67a1.58 1.58 0 00.806-.568 1.6 1.6 0 00.315-.94c0-.134-.026-1.578-1.834-1.578H9.116V9.06h2.272c.601 0 2.476 0 2.476-1.821 0-.455-.185-1.312-1.355-1.568zm-1.866-2.087h.486c.69 0 .966.243.966.78 0 .424-.303.783-.842.783h-.61zm.633 4.426h-.633V6.345h.675c.8 0 .997.471.997.833 0 .831-.788.831-1.04.831zM26.463 6.581h6.065a1.892 1.892 0 001.884-1.9 1.888 1.888 0 00-1.884-1.884h-6.065A1.888 1.888 0 0024.58 4.68c0 1.037.847 1.901 1.883 1.901zm-7.43 2.264c.813 0 1.487-.501 1.763-1.244.086-.208.12-.45.12-.813v-.915a1.92 1.92 0 010-2.385v-.19a.501.501 0 00-.5-.501h-1.192c-.467 0-.778.07-1.037.19A1.899 1.899 0 0017.15 4.68c0 1.089.795 1.901 1.763 1.901.432 0 .743-.138.984-.345h.018v.673c0 .501-.398.916-.881.916a.883.883 0 01-.813-.553c-.086-.19-.259-.328-.466-.328-.294 0-.518.225-.518.484s.19.57.38.76c.363.397.864.657 1.417.657zm0-3.266a.889.889 0 01-.88-.899c0-.483.397-.88.88-.88.536 0 .882.345.882.88 0 .484-.398.899-.881.899zM22.8 6.58c.709 0 1.314-.397 1.642-.968a1.941 1.941 0 01-.242-.95c0-.328.086-.64.242-.916a1.881 1.881 0 00-1.642-.95c-1.036 0-1.9.847-1.9 1.883 0 1.037.864 1.901 1.9 1.901zm0-1.002c-.483 0-.88-.415-.88-.899 0-.5.397-.898.88-.898.484 0 .882.397.882.898 0 .484-.398.899-.882.899zm4.026-.294h.242c.104 0 .173-.034.225-.052.069-.052.104-.12.104-.224 0-.104-.035-.173-.087-.208a.368.368 0 00-.207-.052h-.277zm-.466.328v-1.9h.743c.19 0 .345.034.449.103.138.087.19.208.19.38a.406.406 0 01-.104.294c-.051.052-.12.07-.207.104a3 3 0 00.19.07c.156.068.225.206.225.397 0 .224-.087.38-.26.449-.138.069-.293.103-.5.103zm.466-1.14h.242c.156 0 .225-.069.225-.225 0-.069-.017-.12-.052-.155-.035-.035-.086-.052-.155-.052h-.26zm1.33 1.14v-1.9h1.297v.345h-.847v.415h.674v.346h-.674v.432h.933l-.052.362zm2.195 0V4.058h-.553l.035-.345h1.52v.345H30.8v1.555zm.95 0l.744-1.9h.345l.726 1.9h-.484l-.155-.397h-.64l-.155.397zm.64-.708h.432l-.207-.605z"/></svg>