<?xml version="1.0" encoding="UTF-8" standalone="no"?>
<!DOCTYPE svg PUBLIC "-//W3C//DTD SVG 1.1//EN" "http://www.w3.org/Graphics/SVG/1.1/DTD/svg11.dtd">
<svg width="100%" height="100%" viewBox="0 0 1768 237" version="1.1" xmlns="http://www.w3.org/2000/svg" xmlns:xlink="http://www.w3.org/1999/xlink" xml:space="preserve" xmlns:serif="http://www.serif.com/" style="fill-rule:evenodd;clip-rule:evenodd;stroke-linecap:round;stroke-linejoin:round;stroke-miterlimit:1.5;">
    <g transform="matrix(1,0,0,1,-340.44,-1589.01)">
        <g transform="matrix(1,0,0,1,-109.031,1265.22)">
            <g transform="matrix(200,0,0,200,433.071,512.421)">
                <path d="M0.436,-0.209L0.545,-0.36L0.545,0L0.702,0L0.702,-0.68L0.602,-0.68L0.404,-0.394L0.186,-0.68L0.082,-0.68L0.082,0L0.238,0L0.238,-0.371L0.374,-0.2L0.436,-0.209Z" style="fill:rgb(34,205,94);fill-rule:nonzero;"/>
            </g>
            <g transform="matrix(200,0,0,200,590.071,512.421)">
                <path d="M0.072,-0.68L0.073,-0.254C0.073,-0.2 0.085,-0.153 0.109,-0.113C0.133,-0.073 0.167,-0.042 0.212,-0.02C0.256,0.002 0.307,0.013 0.365,0.013C0.423,0.013 0.474,0.002 0.519,-0.02C0.563,-0.042 0.597,-0.073 0.622,-0.113C0.646,-0.153 0.658,-0.2 0.658,-0.254L0.658,-0.68L0.501,-0.68L0.501,-0.263C0.501,-0.216 0.489,-0.18 0.464,-0.155C0.439,-0.13 0.406,-0.117 0.365,-0.117C0.324,-0.117 0.291,-0.129 0.266,-0.154C0.241,-0.179 0.229,-0.215 0.229,-0.263L0.229,-0.68L0.072,-0.68ZM0.265,-0.753C0.286,-0.753 0.303,-0.76 0.317,-0.774C0.331,-0.788 0.338,-0.806 0.338,-0.827C0.338,-0.847 0.331,-0.864 0.317,-0.879C0.303,-0.894 0.286,-0.901 0.265,-0.901C0.244,-0.901 0.227,-0.894 0.212,-0.879C0.197,-0.864 0.19,-0.847 0.19,-0.827C0.19,-0.806 0.197,-0.789 0.212,-0.775C0.227,-0.76 0.244,-0.753 0.265,-0.753ZM0.465,-0.753C0.486,-0.753 0.504,-0.76 0.519,-0.774C0.533,-0.788 0.54,-0.806 0.54,-0.827C0.54,-0.847 0.533,-0.864 0.519,-0.879C0.504,-0.894 0.486,-0.901 0.465,-0.901C0.446,-0.901 0.429,-0.894 0.414,-0.879C0.399,-0.864 0.391,-0.847 0.391,-0.827C0.391,-0.806 0.398,-0.789 0.413,-0.775C0.428,-0.76 0.445,-0.753 0.465,-0.753Z" style="fill:rgb(34,205,94);fill-rule:nonzero;"/>
            </g>
            <g transform="matrix(200,0,0,200,736.071,512.421)">
                <path d="M0.238,0L0.238,-0.406L0.526,0L0.676,0L0.676,-0.68L0.52,-0.68L0.52,-0.269L0.232,-0.68L0.082,-0.68L0.082,0L0.238,0Z" style="fill:rgb(34,205,94);fill-rule:nonzero;"/>
            </g>
            <g transform="matrix(200,0,0,200,887.871,512.421)">
                <path d="M0.04,-0.043C0.064,-0.028 0.097,-0.015 0.141,-0.004C0.184,0.007 0.221,0.013 0.252,0.013C0.306,0.013 0.353,0.005 0.393,-0.012C0.432,-0.029 0.462,-0.052 0.484,-0.081C0.505,-0.11 0.515,-0.144 0.515,-0.181C0.515,-0.216 0.505,-0.247 0.486,-0.274C0.467,-0.301 0.444,-0.323 0.419,-0.341C0.394,-0.358 0.357,-0.381 0.309,-0.409C0.298,-0.416 0.287,-0.422 0.276,-0.427C0.247,-0.442 0.227,-0.456 0.214,-0.467C0.201,-0.478 0.194,-0.49 0.194,-0.505C0.194,-0.523 0.202,-0.537 0.218,-0.548C0.233,-0.558 0.253,-0.563 0.278,-0.563C0.302,-0.563 0.324,-0.56 0.345,-0.555C0.366,-0.55 0.392,-0.54 0.424,-0.527L0.472,-0.641C0.445,-0.657 0.414,-0.67 0.379,-0.68C0.344,-0.689 0.309,-0.694 0.276,-0.694C0.227,-0.694 0.184,-0.686 0.147,-0.67C0.11,-0.653 0.082,-0.631 0.063,-0.603C0.043,-0.574 0.033,-0.542 0.032,-0.506C0.032,-0.472 0.042,-0.441 0.062,-0.414C0.081,-0.387 0.104,-0.364 0.13,-0.346C0.155,-0.328 0.191,-0.305 0.236,-0.278C0.249,-0.27 0.259,-0.264 0.266,-0.261C0.297,-0.243 0.319,-0.229 0.333,-0.218C0.346,-0.207 0.353,-0.196 0.353,-0.183C0.353,-0.164 0.344,-0.148 0.326,-0.137C0.308,-0.125 0.282,-0.119 0.249,-0.119C0.224,-0.119 0.196,-0.124 0.165,-0.134C0.133,-0.143 0.106,-0.154 0.085,-0.165L0.04,-0.043Z" style="fill:rgb(34,205,94);fill-rule:nonzero;"/>
            </g>
            <g transform="matrix(200,0,0,200,995.271,512.421)">
                <path d="M0.576,-0.68L0.01,-0.68L0.01,-0.557L0.213,-0.557L0.213,0L0.37,0L0.37,-0.557L0.595,-0.557L0.576,-0.68Z" style="fill:rgb(34,205,94);fill-rule:nonzero;"/>
            </g>
            <g transform="matrix(200,0,0,200,1116.27,512.421)">
                <path d="M0.57,0L0.551,-0.122L0.238,-0.122L0.238,-0.281L0.473,-0.281L0.454,-0.404L0.238,-0.404L0.238,-0.557L0.53,-0.557L0.511,-0.68L0.082,-0.68L0.082,0L0.57,0Z" style="fill:rgb(34,205,94);fill-rule:nonzero;"/>
            </g>
            <g transform="matrix(200,0,0,200,1234.27,512.421)">
                <path d="M0.082,0L0.238,0L0.238,-0.236L0.36,-0.236L0.487,0L0.662,0L0.503,-0.28C0.535,-0.298 0.56,-0.322 0.579,-0.353C0.598,-0.384 0.607,-0.419 0.607,-0.459C0.607,-0.532 0.581,-0.588 0.53,-0.625C0.479,-0.662 0.413,-0.68 0.333,-0.68L0.082,-0.68L0.082,0ZM0.328,-0.554C0.365,-0.554 0.394,-0.546 0.414,-0.53C0.434,-0.514 0.444,-0.489 0.444,-0.456C0.444,-0.426 0.434,-0.403 0.413,-0.386C0.392,-0.369 0.364,-0.36 0.33,-0.36L0.238,-0.36L0.238,-0.554L0.328,-0.554Z" style="fill:rgb(34,205,94);fill-rule:nonzero;"/>
            </g>
        </g>
        <g transform="matrix(1,0,0,1,1136.2,1265.02)">
            <g transform="matrix(200,0,0,200,433.071,512.421)">
                <path d="M0.091,-0.112C0.091,-0.095 0.089,-0.082 0.086,-0.072C0.082,-0.061 0.074,-0.051 0.063,-0.043C0.051,-0.034 0.033,-0.025 0.01,-0.016L0.073,0.104C0.118,0.089 0.153,0.074 0.178,0.059C0.202,0.044 0.221,0.026 0.232,0.005C0.243,-0.017 0.248,-0.043 0.248,-0.076L0.248,-0.68L0.091,-0.68L0.091,-0.112Z" style="fill:rgb(34,205,94);fill-rule:nonzero;"/>
            </g>
            <g transform="matrix(200,0,0,200,497.071,512.421)">
                <path d="M0.57,0L0.551,-0.122L0.238,-0.122L0.238,-0.281L0.473,-0.281L0.454,-0.404L0.238,-0.404L0.238,-0.557L0.53,-0.557L0.511,-0.68L0.082,-0.68L0.082,0L0.57,0Z" style="fill:rgb(34,205,94);fill-rule:nonzero;"/>
            </g>
            <g transform="matrix(200,0,0,200,615.071,512.421)">
                <path d="M0.576,-0.68L0.01,-0.68L0.01,-0.557L0.213,-0.557L0.213,0L0.37,0L0.37,-0.557L0.595,-0.557L0.576,-0.68Z" style="fill:rgb(34,205,94);fill-rule:nonzero;"/>
            </g>
            <g transform="matrix(200,0,0,200,736.071,512.421)">
                <path d="M0.551,-0.122L0.188,-0.122L0.564,-0.564L0.547,-0.68L0.041,-0.68L0.057,-0.557L0.38,-0.557L0.012,-0.115L0.03,0L0.567,0L0.551,-0.122Z" style="fill:rgb(34,205,94);fill-rule:nonzero;"/>
            </g>
            <g transform="matrix(200,0,0,200,852.271,512.421)">
                <path d="M0.576,-0.68L0.01,-0.68L0.01,-0.557L0.213,-0.557L0.213,0L0.37,0L0.37,-0.557L0.595,-0.557L0.576,-0.68Z" style="fill:rgb(34,205,94);fill-rule:nonzero;"/>
            </g>
        </g>
        <g transform="matrix(1.04626,0,0,0.95231,-101.773,51.9728)">
            <path d="M1561.12,1642.87C1561.12,1626.94 1549.35,1614.01 1534.86,1614.01L1361.61,1614.01C1347.11,1614.01 1335.35,1626.94 1335.35,1642.87L1335.35,1833.21C1335.35,1849.13 1347.11,1862.06 1361.61,1862.06L1534.86,1862.06C1549.35,1862.06 1561.12,1849.13 1561.12,1833.21L1561.12,1642.87Z" style="fill:rgb(34,205,94);"/>
        </g>
        <g id="Calendar" transform="matrix(0.442071,0,0,0.442071,880.24,701.369)">
            <g id="Calendar-Frame" serif:id="Calendar Frame">
                <path d="M991.168,2173.45L1419.35,2172.77" style="fill:none;stroke:white;stroke-width:18.75px;"/>
                <path d="M991.122,2086.75L991.806,2491.53L1419,2491.29L1419.35,2086.75L1391.4,2086.93" style="fill:none;stroke:white;stroke-width:18.75px;"/>
                <path d="M1018.25,2086.93L991.122,2086.75" style="fill:none;stroke:white;stroke-width:18.75px;"/>
            </g>
            <g transform="matrix(2.26208,0,0,2.26208,-1991.17,-1586.55)">
                <g id="Calendar-Top" serif:id="Calendar Top">
                    <path d="M1339.35,1636.29L1339.29,1612.1L1339.35,1636.29ZM1387.98,1636.29L1387.92,1612.1L1387.98,1636.29ZM1338.91,1636.29L1338.85,1612.1L1338.91,1636.29ZM1363.41,1636.29L1363.35,1612.1L1363.41,1636.29ZM1412.72,1636.29L1412.65,1612.1L1412.72,1636.29ZM1437.68,1636.29L1437.62,1612.1L1437.68,1636.29ZM1461.91,1636.29L1461.85,1612.1L1461.91,1636.29ZM1486.69,1636.29L1486.62,1612.1L1486.69,1636.29ZM1347.72,1624.44L1354.9,1624.42L1347.72,1624.44ZM1372.41,1624.46L1379.6,1624.44L1372.41,1624.46ZM1396.66,1624.48L1403.85,1624.46L1396.66,1624.48ZM1421.74,1624.19L1428.92,1624.17L1421.74,1624.19ZM1446.19,1624.17L1453.37,1624.15L1446.19,1624.17ZM1470.78,1624.43L1477.96,1624.41L1470.78,1624.43Z" style="fill:none;stroke:white;stroke-width:8.33px;"/>
                </g>
            </g>
            <g id="Heart">
                <path d="M1205.08,2282.08C1203.5,2270.86 1174.21,2234.22 1139.53,2257.46C1089.83,2290.76 1127.98,2370.87 1204.34,2414.43" style="fill:none;stroke:white;stroke-width:16.67px;"/>
                <g transform="matrix(-1,0,0,1,2410.17,0)">
                    <path d="M1205.08,2282.08C1203.5,2270.86 1174.21,2234.22 1139.53,2257.46C1089.83,2290.76 1127.98,2370.87 1204.34,2414.43" style="fill:none;stroke:white;stroke-width:16.67px;"/>
                </g>
            </g>
        </g>
    </g>
</svg>
