<svg xmlns="http://www.w3.org/2000/svg" xml:space="preserve" width="2005.33" height="236.22" style="clip-rule:evenodd;fill-rule:evenodd;stroke-linecap:round;stroke-linejoin:round;stroke-miterlimit:1.5"><path d="M1277.84 52.43h-30.811l.196 83.602q0 15.896 7.065 27.671 7.26 11.775 20.213 18.251 12.953 6.476 30.026 6.476 17.466-.196 30.222-6.476 12.953-6.476 20.018-18.25 7.26-11.776 7.26-27.672V52.43h-30.81v81.836q0 9.42-3.532 15.896-3.337 6.28-9.42 9.616-5.888 3.14-13.738 3.14-7.653 0-13.737-3.14-6.084-3.14-9.616-9.42-3.336-6.476-3.336-16.092z" aria-label="U" style="font-size:196.248px;font-family:Catamaran;-inkscape-font-specification:Catamaran;fill:#22cd5e;stroke-width:66.8943"/><path d="M1422.867 185.88v-42.587h16.877q10.597 0 20.606-2.747 10.009-2.748 17.859-8.243 7.85-5.495 12.363-14.13 4.71-8.634 4.71-20.213 0-15.7-7.457-25.708-7.261-10.205-19.429-14.915-12.167-4.907-27.082-4.907h-49.062v133.45Zm17.466-108.722q7.26 0 12.363 2.355t7.85 7.26q2.748 4.71 2.748 11.972-.197 6.084-3.14 10.794-2.748 4.513-7.85 6.868-4.906 2.355-11.383 2.355h-18.054V77.158Z" aria-label="P" style="font-size:196.248px;font-family:Catamaran;-inkscape-font-specification:Catamaran;fill:#22cd5e;stroke-width:66.8943"/><path d="M1571.23 185.88q19.232-.197 33.166-8.243 14.13-8.243 21.783-23.354 7.654-15.11 7.654-35.913 0-19.036-7.065-33.755-6.869-14.915-20.606-23.55-13.737-8.635-34.54-8.635h-55.734v133.45Zm0-108.526q10.401 0 17.074 5.102 6.868 5.103 10.204 14.327 3.533 9.223 3.533 21.587 0 14.915-4.121 24.335-4.122 9.42-11.383 13.933-7.26 4.318-16.877 4.318h-23.157V77.354Z" aria-label="D" style="font-size:196.248px;font-family:Catamaran;-inkscape-font-specification:Catamaran;fill:#22cd5e;stroke-width:66.8943"/><path d="M1722.733 132.696h-30.614l14.915-41.408zm-29.437-80.266-51.024 133.45h30.614l10.402-28.85h48.473l10.793 30.812 30.223-3.533-50.829-131.879z" aria-label="A" style="font-size:196.248px;font-family:Catamaran;-inkscape-font-specification:Catamaran;fill:#22cd5e;stroke-width:66.8943"/><path d="M1887.778 52.43h-111.076V76.57h40.034v109.31h30.615V76.57h44.156z" aria-label="T" style="font-size:196.248px;font-family:Catamaran;-inkscape-font-specification:Catamaran;fill:#22cd5e;stroke-width:66.8943"/><path d="m2005.33 185.88-3.925-23.943h-61.23v-31.204h46.12l-3.73-24.138h-42.39V76.569h57.305l-3.728-24.139h-84.19v133.45Z" aria-label="E" style="font-size:196.248px;font-family:Catamaran;-inkscape-font-specification:Catamaran;fill:#22cd5e;stroke-width:66.8943"/><path d="m70.8 146.83 21.8-30.2v72H124v-136h-20l-39.6 57.2-43.6-57.2H0v136h31.2v-74.2l27.2 34.2zM155 52.63l.2 85.2c0 10.8 2.4 20.2 7.2 28.2 4.8 8 11.6 14.2 20.6 18.6 8.8 4.4 19 6.6 30.6 6.6 11.6 0 21.8-2.2 30.8-6.6 8.8-4.4 15.6-10.6 20.6-18.6 4.8-8 7.2-17.4 7.2-28.2v-85.2h-31.4v83.4c0 9.4-2.4 16.6-7.4 21.6s-11.6 7.6-19.8 7.6c-8.2 0-14.8-2.4-19.8-7.4s-7.4-12.2-7.4-21.8v-83.4zm38.6-14.6c4.2 0 7.6-1.4 10.4-4.2 2.8-2.8 4.2-6.4 4.2-10.6 0-4-1.4-7.4-4.2-10.4-2.8-3-6.2-4.4-10.4-4.4s-7.6 1.4-10.6 4.4c-3 3-4.4 6.4-4.4 10.4 0 4.2 1.4 7.6 4.4 10.4 3 3 6.4 4.4 10.6 4.4zm40 0c4.2 0 7.8-1.4 10.8-4.2 2.8-2.8 4.2-6.4 4.2-10.6 0-4-1.4-7.4-4.2-10.4-3-3-6.6-4.4-10.8-4.4-3.8 0-7.2 1.4-10.2 4.4-3 3-4.6 6.4-4.6 10.4 0 4.2 1.4 7.6 4.4 10.4 3 3 6.4 4.4 10.4 4.4zM334.2 188.63v-81.2l57.6 81.2h30v-136h-31.2v82.2L333 52.63h-30v136zM446.4 180.03c4.8 3 11.4 5.6 20.2 7.8 8.6 2.2 16 3.4 22.2 3.4 10.8 0 20.2-1.6 28.2-5 7.8-3.4 13.8-8 18.2-13.8 4.2-5.8 6.2-12.6 6.2-20 0-7-2-13.2-5.8-18.6-3.8-5.4-8.4-9.8-13.4-13.4-5-3.4-12.4-8-22-13.6-2.2-1.4-4.4-2.6-6.6-3.6-5.8-3-9.8-5.8-12.4-8-2.6-2.2-4-4.6-4-7.6 0-3.6 1.6-6.4 4.8-8.6 3-2 7-3 12-3 4.8 0 9.2.6 13.4 1.6 4.2 1 9.4 3 15.8 5.6l9.6-22.8c-5.4-3.2-11.6-5.8-18.6-7.8-7-1.8-14-2.8-20.6-2.8-9.8 0-18.4 1.6-25.8 4.8-7.4 3.4-13 7.8-16.8 13.4-4 5.8-6 12.2-6.2 19.4 0 6.8 2 13 6 18.4 3.8 5.4 8.4 10 13.6 13.6 5 3.6 12.2 8.2 21.2 13.6 2.6 1.6 4.6 2.8 6 3.4 6.2 3.6 10.6 6.4 13.4 8.6 2.6 2.2 4 4.4 4 7 0 3.8-1.8 7-5.4 9.2-3.6 2.4-8.8 3.6-15.4 3.6-5 0-10.6-1-16.8-3-6.4-1.8-11.8-4-16-6.2zM661 52.63H547.8v24.6h40.6v111.4h31.4V77.23h45zM780.799 188.63l-3.8-24.4h-62.6v-31.8h47l-3.8-24.6h-43.2v-30.6h58.4l-3.8-24.6h-85.8v136zM801.199 188.63h31.2v-47.2h24.4l25.4 47.2h35l-31.8-56c6.4-3.6 11.4-8.4 15.2-14.6 3.8-6.2 5.6-13.2 5.6-21.2 0-14.6-5.2-25.8-15.4-33.2-10.2-7.4-23.4-11-39.4-11h-50.2zm49.2-110.8c7.4 0 13.2 1.6 17.2 4.8 4 3.2 6 8.2 6 14.8 0 6-2 10.6-6.2 14-4.2 3.4-9.8 5.2-16.6 5.2h-18.4v-38.8z" style="fill:#22cd5e;fill-rule:nonzero;stroke-width:200"/><path d="M1191.124 27.484c0-15.17-12.314-27.484-27.474-27.484H982.385c-15.17 0-27.475 12.313-27.475 27.484v181.262c0 15.161 12.304 27.474 27.475 27.474h181.265c15.16 0 27.474-12.313 27.474-27.474z" style="fill:#22cd5e;stroke-width:.99818"/><path d="m998.911 47.28-.06-24.19zm48.63 0-.06-24.19zm-49.07 0-.06-24.19zm24.5 0-.06-24.19zm49.31 0-.07-24.19zm24.96 0-.06-24.19zm24.23 0-.06-24.19zm24.78 0-.07-24.19zm-138.97-11.85 7.18-.02zm24.69.02 7.19-.02zm24.25.02 7.19-.02zm25.08-.29 7.18-.02zm24.45-.02 7.18-.02zm24.59.26 7.18-.02zm-140.402-.49-11.993-.08m0 0 .303 178.941 188.85-.106.155-178.835-12.356.08M977.967 73.178l189.287-.301" style="fill:none;stroke:#fff;stroke-width:8.33px"/><path d="M1072.535 121.2c.699-4.96 13.647-21.158 28.978-10.884 21.971 14.72 5.106 50.135-28.65 69.392m-.332-58.508c-.699-4.96-13.647-21.158-28.978-10.884-21.97 14.72-5.106 50.135 28.65 69.392" style="fill:none;stroke:#fff;stroke-width:7.36932px"/></svg>