<svg version="1" xmlns="http://www.w3.org/2000/svg" width="933.333" height="933.333" viewBox="0 0 700.000000 700.000000"><path d="M66 1.5c-16.3 3.3-29.7 10.4-41.5 22C11.6 36.2 3.5 52 1 69.6.2 75.3 0 153.7.2 354c.3 264.3.4 276.8 2.2 282.5 9.1 30 27.8 49 57.3 58.2l8.8 2.8h559l8.5-2.3c29.9-7.9 51.3-29.3 59.2-59.2l2.3-8.5v-279c0-268.5-.1-279.3-1.9-286-8.6-32.6-34.2-56.2-66.7-61.4C618.6-.6 74.5-.2 66 1.5zm72.1 58.4l3.9 3.9v38.5l2.3-3.4c3.7-5.7 7.5-6.9 21-6.9 15.5 0 20.4 2.1 22.7 9.6.5 1.9.9-4.2.9-16.9.1-21.8.7-24.4 6.1-27.2 5.9-3.1 13-1.1 16.4 4.5 1.4 2.5 1.6 7.5 1.6 42 0 43.7.1 43.3-6.8 46.6-5 2.4-10 1.3-13.9-3.1L189 144l-.1-19.7c-.1-13.2-.4-18.8-1-16.8-.4 1.7-2.2 4.4-3.9 6l-3.1 3-14.7.3c-16.6.3-19.3-.5-22.5-6.9-1.6-3.3-1.7-2.9-1.7 14.9 0 20.5-.6 22.8-6.6 25.7-7.2 3.4-15.7.3-18.1-6.5-.7-2.2-1.2-10.4-1.3-21.5-.1-15.8-.2-17.6-1.4-15-2.8 6.3-4.4 7-20 7.5l-14.1.5-.3 43.4c-.1 25.2.2 43.9.7 44.4.5.5 107.3.6 267.5.2l266.6-.8V115h-29.2l-3.4-3.4c-3.3-3.3-3.9-5.2-3.4-10.6.3-3.7 1.7-5.9 5.3-8 2.9-1.8 5.2-2 25.5-2h22.4l3.4 3.4 3.4 3.4v57.8c.1 435 0 477.5-1.4 480.9-2.9 6.9 22.2 6.3-288.7 7-271.8.7-281.5.6-284.8-1.2-1.9-1-4.3-3-5.4-4.4-1.9-2.6-1.9-7.9-2.5-270.7-.5-249.1-.4-268.3 1.2-270.6 3.6-5.6 4.8-5.8 27.8-5.7 23.8.2 25.8.7 29 7.1 1.8 3.5 1.8 3.3 1.8-13.8 0-19.5.8-22.9 6.2-26.2 2-1.2 5.1-2 7.7-2 3.7 0 4.9.6 8.2 3.9zM279.8 58c6 3.7 6.2 4.9 6.2 46.7 0 35.7-.1 38-2 41-3.7 6.1-10.8 7.9-16.8 4.3-5.3-3.3-6.2-6.8-6.2-25v-16l-3.4 3.8-3.4 3.7-14.9.3c-14.1.3-15 .2-18.3-2-2.2-1.5-4-3.8-4.9-6.4-1.3-3.7-1.2-4.4.5-7.9 3.6-7.3 5.6-8 21.9-8 13 0 14.6.2 17.2 2.1 1.5 1.1 3.4 3.2 4 4.5 1.1 2 1.3-.7 1.3-15.7 0-17.2.1-18.3 2.3-21.5 4.1-6.1 10.5-7.6 16.5-3.9zm73 0c6 3.7 6.2 4.9 6.2 46.7 0 41.3 0 41-5.9 45-4.3 2.9-8.9 2.9-13.2 0-5.8-3.9-6-5.7-5.7-47.8.3-36.5.4-37.8 2.4-40.6 4.1-5.5 10.4-6.8 16.2-3.3zm74.3.3c5 3.3 5.8 6.9 5.9 26.2.1 10.3.5 16.2 1 14.9.4-1.1 2.2-3.3 4-4.7 3-2.6 3.6-2.7 16.3-2.8 16.3-.2 16.6-.1 19.8 2.2 6.2 4.4 6.4 13.2.4 18.7l-3.6 3.3-15.4-.3c-16.8-.3-18.2-.8-21.1-7.3-1.2-2.6-1.3-.8-1.4 14.8 0 20-.8 23.4-6.2 26.7-4.2 2.5-8.4 2.5-12.5 0-6.4-3.9-6.4-3.8-6.1-47.6l.3-39.6 3.7-3.4c4.6-4.2 9.7-4.6 14.9-1.1zm73 1.6l3.9 3.9v39.7c0 35.6-.2 40-1.7 42.6-1.8 3.1-6.7 5.9-10.3 5.9-3.5 0-8.5-2.8-10.3-5.9-1.4-2.5-1.6-7.3-1.7-42.4-.1-28 .2-40.2 1-41.7 1.7-3.2 7-6 11.4-6 3.1 0 4.5.7 7.7 3.9zm70.9-2.4c5.9 3.1 6 3.6 6 46.5 0 43.5 0 43.3-6.6 46.5-4.9 2.3-9.9 1.4-13.9-2.5l-3-3-.3-39.7c-.2-29.3 0-40.5.9-42.6 2.5-5.9 10.7-8.4 16.9-5.2zM322.9 92.6c4.2.9 8.9 5.6 9.6 9.8.9 4.5-1.6 10.1-5.7 12.6-3 1.9-4.6 2-18 1.8l-14.8-.3-3.1-3.1c-6.4-6.4-4.1-17.2 4.1-20.1 3.7-1.3 22.6-1.7 27.9-.7zm78 .9c3 1.5 6.1 6.9 6.1 10.5 0 3-2.5 7.5-5.6 9.9-2.4 1.9-4 2.1-17.5 2.1H369l-3.5-3.3c-4.5-4-5.5-8.9-3-14.1 2.8-5.8 5.1-6.5 21.3-6.6 10.6 0 15 .4 17.1 1.5zm143.6.1c1.9.9 4.2 2.8 5.1 4.2 2.3 3.5 2.4 10.1.1 13.6-3.2 4.8-7.3 5.8-22.8 5.4l-13.9-.3-3.1-3.1c-6.1-6.1-4.3-16.6 3.4-19.9 4.7-2.1 26.8-2 31.2.1z"/><path d="M81 423.5V619l266.8-.2 266.7-.3.3-195.3.2-195.2H81v195.5zm223.4-117c13.4 2.8 31 13.6 39.5 24.3l3.1 3.8 8.3-8c12.8-12.4 24.8-18.7 39.7-20.8 34.6-5.1 70.9 23.8 76.9 61.3 7.8 47.9-28 109.7-89.6 154.5-13.4 9.9-28.9 19.2-32.9 20-4.2.8-9.8-1.7-22.6-10.2-49.7-32.5-84.7-73.7-98.8-116.3-4.9-14.7-6.4-25.3-5.7-39.7.9-18.4 6.9-33 19.2-46.2 17.6-19 40.8-27.4 62.9-22.7z"/><path d="M280.5 328.7c-16.7 6-30.1 19.9-34.9 36.2-2.3 7.9-2.1 24.4.4 35.1 8.1 33.5 37.4 72.6 76.2 101.5 8.1 6.1 17.1 12.3 20.1 14l5.5 2.9 6.3-3.9c3.5-2.1 11.4-7.6 17.6-12.2 38.6-28.7 65.8-63.9 75.8-97.8 3.6-12.2 4.5-28.4 2-38.3-3.5-14.4-14.6-27.7-29.2-34.9-7.3-3.6-8.2-3.8-17.2-3.8s-10.1.2-17.2 3.6c-12 5.8-25.8 20-27.5 28.5-1.5 7.6-9.4 11.5-16.2 8-2.9-1.5-3.3-2.2-7.6-12-3.7-8.4-14.7-19.1-24.9-24.1-6.8-3.3-8.9-3.9-16-4.2-6.1-.3-9.5.1-13.2 1.4z"/></svg>